<?xml version="1.0" encoding="UTF-8"?>
<svg width="315px" height="44px" viewBox="0 0 315 44" version="1.1" xmlns="http://www.w3.org/2000/svg" xmlns:xlink="http://www.w3.org/1999/xlink">
    <title>画板</title>
    <g id="画板" stroke="none" stroke-width="1" fill="none" fill-rule="evenodd">
        <rect id="矩形" fill="#FFFFFF" opacity="0" x="0" y="0" width="315" height="44"></rect>
        <g id="编组-2" fill="#000000" fill-rule="nonzero">
            <g id="编组" transform="translate(263.351108, 0.761265)">
                <g transform="translate(9.683544, 7.399209)" id="路径">
                    <path d="M6.00237342,19.4115415 C4.59968354,19.4115415 3.39636076,19.0828458 2.39240506,18.4254545 C1.38844937,17.7680632 0.635126582,16.8687747 0.133860759,15.726166 L2.41946203,14.8183399 C2.71281646,15.5625296 3.18132911,16.1587352 3.82072785,16.6083794 C4.46012658,17.0580237 5.18781646,17.2842688 6.00237342,17.2842688 C7.0931962,17.2842688 8.00601266,16.9171542 8.74224684,16.181502 C9.47705696,15.4472727 9.84588608,14.4996047 9.84588608,13.3399209 C9.84588608,12.0265613 9.43433544,11.027668 8.61265823,10.3432411 C7.78955696,9.66023715 6.76424051,9.31873518 5.53528481,9.31873518 C4.86028481,9.31873518 4.1596519,9.40980237 3.43196203,9.59051383 C2.7056962,9.7712253 2.04636076,10.0173913 1.45822785,10.3304348 L1.71882911,0.57486166 L11.6387658,0.57486166 L11.6387658,2.80600791 L4.0556962,2.80600791 L3.89905063,7.63256917 C4.55696203,7.40774704 5.34446203,7.29533597 6.26297468,7.29533597 C8.06297468,7.29533597 9.53829114,7.82750988 10.6903481,8.89185771 C11.840981,9.95620553 12.4162975,11.3535178 12.4162975,13.0823715 C12.4162975,14.3459289 12.1386076,15.4529644 11.5846519,16.4034783 C11.0306962,17.355415 10.2631329,18.093913 9.28623418,18.6218182 C8.30933544,19.1483004 7.21424051,19.4115415 6.00237342,19.4115415 Z"></path>
                    <path d="M25.4762658,19.4129644 C22.6196203,19.4129644 20.2699367,18.5094071 18.4272152,16.7022925 C16.5830696,14.8937549 15.6617089,12.5715415 15.6617089,9.73565217 C15.6617089,6.91683794 16.5873418,4.60743083 18.4414557,2.80743083 C20.2927215,1.00885375 22.6310127,0.109565217 25.452057,0.109565217 C26.8704114,0.109565217 28.1648734,0.321581028 29.334019,0.745612648 C30.5031646,1.16964427 31.4757911,1.75304348 32.2561709,2.4972332 L30.4647152,4.3655336 C29.9107595,3.75936759 29.1958861,3.27557312 28.321519,2.91130435 C27.4471519,2.5484585 26.5001582,2.36632411 25.4776899,2.36632411 C23.4014241,2.36632411 21.7125,3.07067194 20.4137658,4.48079051 C19.1150316,5.89090909 18.4656646,7.64252964 18.4656646,9.73422925 C18.4656646,11.8444269 19.1178797,13.6003162 20.4265823,15.0018972 C21.7338608,16.4034783 23.4427215,17.1035573 25.5545886,17.1035573 C26.6268987,17.1035573 27.505538,17.0082213 28.1905063,16.8175494 C28.8740506,16.6283004 29.4237342,16.4205534 29.839557,16.1957312 L29.839557,11.084585 L25.7639241,11.084585 L25.7639241,8.90608696 L32.3857595,8.90608696 L32.3857595,17.8050593 C31.1397152,18.4795257 29.9193038,18.9163636 28.7245253,19.1155731 C27.5283228,19.3133597 26.4460443,19.4129644 25.4762658,19.4129644 Z"></path>
                </g>
                <path d="M39.8691456,34.313834 L11.6629747,34.3124111 C5.27610759,34.3124111 0.0811708861,29.1201581 0.0811708861,22.7383399 L0.0811708861,11.6509091 C0.0811708861,5.26909091 5.27753165,0.0782608696 11.6643987,0.0782608696 L39.8705696,0.0796837945 C46.2574367,0.0796837945 51.4523734,5.27193676 51.4523734,11.6537549 L51.4523734,22.7411858 C51.4509494,29.123004 46.2545886,34.313834 39.8691456,34.313834 Z M11.6643987,1.81992095 C6.23876582,1.81992095 1.82420886,6.22956522 1.82420886,11.652332 L1.82420886,22.7397628 C1.82420886,28.1611067 6.23734177,32.5721739 11.6643987,32.5721739 L39.8705696,32.5735968 C45.2962025,32.5735968 49.7107595,28.1625296 49.7107595,22.7411858 L49.7107595,11.6537549 C49.7107595,6.23241107 45.2962025,1.82134387 39.8705696,1.82134387 L11.6643987,1.81992095 Z" id="形状"></path>
            </g>
            <polygon id="路径" points="19.6946203 0.821027668 25.8023734 0.821027668 25.7995253 35.0736759 19.6931962 35.0736759 19.6946203 20.8060079 6.10775316 20.804585 6.10632911 35.072253 4.04739533e-15 35.072253 0.00284810127 0.819604743 6.10775316 0.819604743 6.10775316 14.703083 19.6946203 14.7045059"></polygon>
            <polygon id="路径" points="97.1544304 22.2018972 82.3286392 0.823873518 77.4612342 0.823873518 77.4598101 35.0765217 83.5661392 35.0765217 83.5675633 13.5960474 98.4631329 35.0779447 103.259335 35.0779447 103.260759 0.825296443 97.1558544 0.823873518"></polygon>
            <path d="M129.091614,0.355731225 C119.378165,0.355731225 111.503165,8.22166008 111.503165,17.9288538 C111.503165,27.6346245 119.376741,35.5019763 129.09019,35.5033992 C138.803639,35.5033992 146.678639,27.6360474 146.678639,17.9316996 C146.678639,8.22450593 138.805063,0.355731225 129.091614,0.355731225 Z M129.088766,29.4004746 C122.747468,29.4004746 117.60807,24.2637154 117.60807,17.9288538 C117.60807,11.5925692 122.748892,6.4572332 129.09019,6.4572332 C135.431487,6.4572332 140.570886,11.5939921 140.570886,17.9302767 C140.570886,24.2651383 135.430063,29.4018972 129.088766,29.4004746 Z" id="形状"></path>
            <path d="M171.260601,22.5932016 C175.762025,21.1603162 179.024525,16.9470356 179.024525,11.973913 C179.024525,5.8283004 174.047468,0.845217391 167.90269,0.828142292 L167.90269,0.828142292 L154.922468,0.828142292 L154.921044,35.0807905 L161.027373,35.0807905 L161.028797,19.836996 L173.748418,35.0807905 L181.683228,35.0807905 L171.260601,22.5932016 Z M161.025949,17.0181818 L161.025949,6.92964427 L167.825791,6.92964427 C170.612658,6.92964427 172.872627,9.18924901 172.872627,11.973913 C172.872627,14.76 170.611234,17.0181818 167.824367,17.0181818 L161.025949,17.0181818 Z" id="形状"></path>
            <path d="M51.6318038,0.351462451 C41.9183544,0.351462451 34.0433544,8.2173913 34.0433544,17.924585 C34.0433544,27.6303557 41.9169304,35.4977075 51.6303797,35.4991304 C61.3438291,35.4991304 69.2188291,27.6317787 69.2188291,17.9274308 C69.2188291,8.22023715 61.3452532,0.352885375 51.6318038,0.351462451 Z M51.6303797,29.3962058 C45.2890823,29.3962058 40.1496835,24.2594466 40.1496835,17.924585 C40.1496835,11.5883004 45.2905063,6.45296443 51.6318038,6.45296443 C57.9731013,6.45296443 63.1110759,11.5897233 63.1110759,17.9260079 C63.1110759,24.2608696 57.9716772,29.3976285 51.6303797,29.3962058 Z" id="形状"></path>
            <path d="M209.396677,35.9530435 C207.009968,35.9530435 204.947943,35.4052174 203.206329,34.3095652 C201.464715,33.215336 200.110443,31.6842688 199.143513,29.7177866 L202.287816,28.3162055 C202.900158,29.7348617 203.835759,30.8618182 205.093196,31.6999209 C206.350633,32.5380237 207.72057,32.9563636 209.20443,32.9563636 C211.49288,32.9563636 213.403956,32.1837154 214.936234,30.636996 C216.467089,29.0902767 217.234652,27.1579447 217.234652,24.8385771 C217.234652,22.358419 216.435759,20.367747 214.840823,18.8694071 C213.244462,17.3710672 211.205222,16.6226087 208.723101,16.6226087 C207.240665,16.6226087 205.900633,16.824664 204.708703,17.2273518 C203.515348,17.6300395 202.484335,18.056917 201.612816,18.5079842 L201.951741,0.869407115 L219.412025,0.87083004 L219.412025,3.96426877 L205.144462,3.96284585 L204.902373,14.5465613 C206.320728,14.0314625 207.901424,13.773913 209.643038,13.773913 C212.898418,13.773913 215.567089,14.7728063 217.647627,16.7705929 C219.726741,18.7698024 220.766297,21.3452964 220.766297,24.5027668 C220.766297,26.6940711 220.290665,28.6577075 219.339399,30.3979447 C218.388133,32.1381818 217.049525,33.498498 215.325,34.4817391 C213.596203,35.4621344 211.621044,35.9530435 209.396677,35.9530435 Z" id="路径"></path>
            <path d="M238.511392,35.9544664 C234.545411,35.9544664 231.684494,34.238419 229.927215,30.807747 C228.169937,27.3770751 227.291297,23.1168379 227.29272,18.0256126 C227.29272,12.903083 228.171361,8.61865613 229.928639,5.17090909 C231.685918,1.72458498 234.548259,-5.57481158e-15 238.514241,-5.57481158e-15 C241.222785,-5.57481158e-15 243.38307,0.781185771 244.995095,2.34355731 C246.60712,3.90735178 247.799051,6.11288538 248.573734,8.96442688 C249.346994,11.8159684 249.734335,14.835415 249.734335,18.0256126 C249.734335,23.1168379 248.847152,27.3770751 247.072785,30.807747 C245.298418,34.2398419 242.44462,35.9544664 238.511392,35.9544664 Z M238.511392,32.9577866 C241.251266,32.9577866 243.21788,31.4836364 244.411234,28.5367589 C245.604589,25.5884585 246.201266,22.0852174 246.201266,18.0256126 C246.201266,13.9347036 245.604589,10.3987352 244.412658,7.41770751 C243.219304,4.43810277 241.25269,2.9483004 238.512816,2.94687747 C235.738766,2.94687747 233.765032,4.42956522 232.587342,7.39209486 C231.409652,10.3560474 230.822943,13.9005534 230.821519,18.0241897 C230.821519,22.1150988 231.408228,25.6283004 232.585918,28.5595257 C233.763608,31.4921739 235.737342,32.9577866 238.511392,32.9577866 Z" id="形状"></path>
        </g>
    </g>
</svg>