<?xml version="1.0" encoding="UTF-8"?>
<svg width="521px" height="44px" viewBox="0 0 521 44" version="1.1" xmlns="http://www.w3.org/2000/svg" xmlns:xlink="http://www.w3.org/1999/xlink">
    <title>画板</title>
    <g id="画板" stroke="none" stroke-width="1" fill="none" fill-rule="evenodd">
        <g id="HONOR-Magic3-Series-5G" fill="#000000" fill-rule="nonzero">
            <path d="M487.021031,25.8948148 C485.827661,25.925804 484.651046,25.6087302 483.634531,24.9822222 C482.69739,24.3584618 481.961944,23.475112 481.517969,22.44 L483.667094,21.5925926 C483.937139,22.2537163 484.395836,22.8205323 484.985875,23.2222222 C485.578732,23.6468037 486.292144,23.8695939 487.021031,23.8577778 C487.986536,23.8857076 488.919559,23.5074249 489.593469,22.8148148 C490.283808,22.1069749 490.654471,21.1470732 490.619188,20.1585185 C490.696228,19.0894249 490.26838,18.0459584 489.463219,17.3392593 C488.652296,16.6770335 487.627144,16.3350005 486.581438,16.3777778 C485.916278,16.3793504 485.254113,16.4669904 484.611406,16.6385185 C483.970641,16.7843492 483.351999,17.0144993 482.771625,17.322963 L482.999563,8.14814815 L492.312438,8.14814815 L492.312438,10.3155556 L485.18125,10.3155556 L485.034719,14.8459259 C485.749843,14.6160138 486.497992,14.5058902 487.248969,14.52 C488.774913,14.4609339 490.263917,14.9986398 491.400688,16.0192593 C492.491238,17.0338114 493.08573,18.473812 493.028813,19.962963 C493.048805,21.0494797 492.785033,22.1223938 492.263594,23.0755556 C491.743088,23.965184 490.980862,24.6885559 490.065625,25.1614815 C489.126869,25.6539208 488.080838,25.9058722 487.021031,25.8948148 L487.021031,25.8948148 Z" id="路径"></path>
            <path d="M505.272312,25.8948148 C502.848329,25.9580466 500.500998,25.0417416 498.759812,23.3525926 C497.017186,21.64117 496.072112,19.276302 496.154812,16.8340741 C496.068054,14.3911367 497.013758,12.0246902 498.759812,10.3155556 C500.504019,8.63112099 502.849295,7.71561815 505.272312,7.77333333 C506.514113,7.75586522 507.749087,7.9600449 508.919312,8.3762963 C509.935518,8.72070211 510.867604,9.27602787 511.654562,10.0059259 L510.026437,11.7496296 C509.452464,11.1506721 508.751391,10.6884275 507.975,10.397037 C507.125424,10.0592836 506.219003,9.88778969 505.304875,9.89185185 C503.511948,9.8337526 501.782513,10.5594782 500.567031,11.88 C499.351552,13.2129678 498.698151,14.9647652 498.743531,16.7688889 C498.695693,18.5764194 499.355977,20.3310063 500.583312,21.6577778 C501.820601,22.9843928 503.574668,23.7045223 505.386281,23.6296296 C506.219048,23.6516029 507.051088,23.5639387 507.861031,23.3688889 C508.396037,23.229121 508.914562,23.0324455 509.40775,22.7822222 L509.40775,18.0725926 L505.581656,18.0725926 L505.581656,16.0355556 L511.784812,16.0355556 L511.784812,24.4444444 C510.717349,25.0441588 509.555617,25.4574783 508.349469,25.6666667 C507.332401,25.8327391 506.302726,25.9090818 505.272312,25.8948148 L505.272312,25.8948148 Z" id="路径"></path>
            <path d="M509.700813,32.9511111 L483.243781,32.9511111 C477.252552,32.9421204 472.400469,28.0782538 472.400469,22.0814815 L472.400469,11.6681481 C472.400469,5.67137581 477.252552,0.807509182 483.243781,0.798518519 L509.700813,0.798518519 C515.692041,0.807509182 520.544125,5.67137581 520.544125,11.6681481 L520.544125,22.0814815 C520.544125,28.0782538 515.692041,32.9421204 509.700813,32.9511111 L509.700813,32.9511111 Z M483.243781,2.42814815 C478.151741,2.43713713 474.028594,6.57139439 474.028594,11.6681481 L474.028594,22.0814815 C474.037555,27.1718723 478.15809,31.2962153 483.243781,31.3051852 L509.700813,31.3051852 C514.786503,31.2962153 518.907038,27.1718723 518.916,22.0814815 L518.916,11.6681481 C518.916,6.57139439 514.792853,2.43713713 509.700813,2.42814815 L483.243781,2.42814815 Z" id="形状"></path>
            <polygon id="路径" points="189.611438 32.9511111 189.611438 0.831111111 194.5935 0.831111111 205.469375 27.4266667 205.567063 27.1496296 216.263844 0.831111111 221.262188 0.831111111 221.262188 32.9511111 218.005938 32.9511111 218.005938 5.05185185 218.005938 5.05185185 206.397406 32.9511111 204.671594 32.9511111 192.965375 5.05185185 192.867688 5.05185185 192.867688 32.9511111"></polygon>
            <path d="M234.222063,33.5051852 C232.293984,33.5923316 230.402339,32.9592644 228.914375,31.7288889 C227.562788,30.5592335 226.814265,28.8390376 226.879219,27.0518519 C226.734643,25.1395135 227.591282,23.2889444 229.142313,22.162963 C230.514857,21.2347869 232.078499,20.6276891 233.717344,20.3866667 C235.345469,20.1585185 237.120125,20.0118519 239.122719,19.9140741 L241.841688,19.9140741 L241.841688,19.2296296 C241.948738,17.7188149 241.423902,16.2313889 240.392656,15.122963 C239.21767,14.1349904 237.707186,13.6388136 236.175813,13.7377778 C234.975512,13.7347403 233.78626,13.9672739 232.675344,14.4222222 C231.623326,14.8480145 230.670099,15.485935 229.874969,16.2962963 L228.149156,14.242963 C229.16626,13.2782696 230.368122,12.5298767 231.682187,12.042963 C233.218948,11.4743461 234.846866,11.1926493 236.485156,11.2118519 C238.642327,11.1246374 240.7566,11.8319789 242.427812,13.2 C244.024544,14.657547 244.874807,16.761196 244.73975,18.92 L244.73975,28.1925926 C244.712283,29.7864275 244.83219,31.3793882 245.097937,32.9511111 L242.330125,32.9511111 C242.201905,32.2178099 242.114934,31.4778792 242.069625,30.7348148 C242.069625,30.137284 242.069625,29.7298765 242.069625,29.5125926 L241.971937,29.5125926 C241.149489,30.7734414 240.031643,31.8139987 238.715687,32.5437037 C237.318227,33.2252216 235.775769,33.5552545 234.222063,33.5051852 L234.222063,33.5051852 Z M235.036125,30.962963 C236.88242,31.0254721 238.66479,30.2821318 239.9205,28.9259259 C241.14757,27.5534267 241.805534,25.7642094 241.760281,23.922963 L241.760281,22.2933333 L240.9625,22.2933333 C238.31563,22.2236429 235.672557,22.5364944 233.114937,23.2222222 C231.348984,23.5332071 230.067471,25.0779608 230.086625,26.8725926 C229.994932,28.0783485 230.545788,29.2430294 231.535656,29.9362963 C232.572452,30.6237801 233.792598,30.9816415 235.036125,30.962963 Z" id="形状"></path>
            <path d="M260.662812,43.8533333 C258.737713,43.8593308 256.831732,43.4711275 255.062062,42.7125926 C253.322638,42.0070899 251.752291,40.9407113 250.454469,39.5837037 L252.668719,37.2207407 C253.626662,38.4057212 254.840061,39.3583951 256.218031,40.0074074 C257.631772,40.7416686 259.200334,41.1271873 260.793062,41.1318519 C263.131725,41.3298443 265.438186,40.4827639 267.093906,38.8177778 C268.481195,37.1173523 269.194109,34.96503 269.0965,32.7718519 L269.0965,28.7792593 L268.998812,28.7792593 C268.165605,30.0945426 266.981247,31.1501598 265.57975,31.8266667 C264.153804,32.5594867 262.575065,32.9447646 260.972156,32.9511111 C258.017148,33.0840322 255.137754,31.9936842 253.010625,29.9362963 C250.980609,27.8705073 249.891028,25.0585592 249.998594,22.162963 C249.926611,19.2482482 251.04352,16.4298598 253.092031,14.357037 C255.153145,12.2323766 258.015156,11.0782283 260.972156,11.1792593 C262.574482,11.1743136 264.154593,11.554338 265.57975,12.2874074 C266.995933,12.9725299 268.183488,14.0536375 268.998812,15.4 L269.0965,15.4 L269.0965,11.717037 L272.173656,11.717037 L272.173656,32.7718519 C272.349599,35.7835312 271.270889,38.7335505 269.194187,40.92 C266.868526,43.0204955 263.787132,44.0799679 260.662812,43.8533333 Z M261.297781,30.3274074 C263.488023,30.4054328 265.611788,29.566951 267.159031,28.0133333 C268.699756,26.4250828 269.52852,24.2777179 269.454687,22.0651852 C269.462869,19.905021 268.61372,17.8300084 267.093906,16.2962963 C265.595576,14.6938114 263.490257,13.8 261.297781,13.8355556 C259.098262,13.7418434 256.968132,14.6173139 255.469094,16.2311111 C253.992376,17.839773 253.203435,19.9631073 253.271125,22.1466667 C253.197146,24.3204202 253.974127,26.4371664 255.436531,28.0459259 C256.966144,29.6229278 259.105607,30.4557101 261.297781,30.3274074 L261.297781,30.3274074 Z" id="形状"></path>
            <path d="M280.656188,5.73633043 C280.081315,5.73954773 279.529474,5.51038085 279.12575,5.10074074 C278.699791,4.70003329 278.463189,4.13758372 278.4745,3.55259259 C278.439318,2.93958143 278.677897,2.34258143 279.12575,1.92296296 C279.529002,1.51793487 280.07677,1.29027407 280.648047,1.29027407 C281.219323,1.29027407 281.767092,1.51793487 282.170344,1.92296296 C282.618197,2.34258143 282.856776,2.93958143 282.821594,3.55259259 C282.832905,4.13758372 282.596302,4.70003329 282.170344,5.10074074 C281.771626,5.50789125 281.225785,5.73700383 280.656188,5.73633043 Z M279.109469,32.9511111 L279.109469,11.7659259 L282.186625,11.7659259 L282.186625,32.9511111 L279.109469,32.9511111 Z" id="形状"></path>
            <path d="M299.054,33.5051852 C296.022001,33.6141037 293.078531,32.4709821 290.913375,30.3437037 C288.80423,28.2259445 287.661466,25.3310165 287.754813,22.3422222 C287.658885,19.3481691 288.801701,16.4472159 290.913375,14.3244444 C293.080189,12.2014705 296.024059,11.0640864 299.054,11.1792593 C300.580224,11.1783809 302.08939,11.5004857 303.4825,12.1244444 C304.854692,12.7152494 306.049779,13.653108 306.950406,14.8459259 L304.540781,16.5733333 C303.983442,15.7128274 303.208178,15.0155692 302.293969,14.5525926 C301.294091,14.0134943 300.173328,13.7386536 299.037719,13.7540741 C296.819415,13.6718492 294.67476,14.5578573 293.160188,16.1822222 C291.64629,17.8680819 290.846449,20.0769829 290.929656,22.3422222 C290.845385,24.5949049 291.639397,26.7921431 293.143906,28.4696296 C294.653038,30.0786601 296.785689,30.9527251 298.988875,30.8651852 C300.25679,30.9313753 301.517012,30.6315838 302.619594,30.0014815 C303.443694,29.5054048 304.16722,28.8586051 304.752438,28.0948148 L307.064375,29.8222222 C306.040186,31.1845992 304.643295,32.2204987 303.042906,32.8044444 C301.756295,33.238469 300.411377,33.4747342 299.054,33.5051852 L299.054,33.5051852 Z" id="路径"></path>
            <path d="M321.408156,33.7659259 C319.246839,33.836212 317.112496,33.2695501 315.270125,32.1362963 C313.458678,30.9600082 312.054233,29.2526273 311.248656,27.2474074 L314.325812,26.1066667 C314.830532,27.5640376 315.789318,28.8207504 317.061062,29.6918519 C318.336709,30.5756678 319.856926,31.0372835 321.408156,31.0118519 C323.263913,31.0537686 325.062866,30.3697684 326.422781,29.1051852 C327.793697,27.8172929 328.541628,25.9992097 328.474219,24.1185185 C328.593052,22.1805772 327.683754,20.3231525 326.080875,19.2296296 C324.302558,18.1147666 322.235918,17.5480405 320.138219,17.6 L318.738031,17.6 L318.738031,14.6666667 L320.138219,14.6666667 C322.06561,14.7771702 323.980534,14.2937313 325.625,13.2814815 C327.034947,12.2415222 327.81021,10.5479168 327.676438,8.8 C327.720182,7.1530386 327.04207,5.56931439 325.820375,4.46518519 C324.587125,3.37546086 322.987545,2.79325798 321.343031,2.83555556 C320.080494,2.81410319 318.838,3.15327831 317.761156,3.81333333 C316.664016,4.46220208 315.763615,5.39723192 315.156156,6.51851852 L312.388344,5.06814815 C313.258834,3.47254302 314.562744,2.15612881 316.149313,1.27111111 C317.781337,0.401405803 319.608436,-0.0361567075 321.457,5.00467723e-16 C323.903936,-0.0802086381 326.293761,0.75003598 328.164875,2.33037037 C329.953672,3.9193092 330.934069,6.22896211 330.835,8.62074074 C330.862033,10.3382924 330.285824,12.0108405 329.206875,13.3466667 C328.188052,14.6291624 326.783666,15.5491427 325.201688,15.9703704 L325.201688,16.0681481 C327.017642,16.4195014 328.659927,17.379344 329.858125,18.7896296 C331.093465,20.2592008 331.742866,22.1337579 331.681625,24.0533333 C331.790171,27.6548906 329.793507,30.9899813 326.569313,32.5925926 C324.967264,33.390738 323.197481,33.7930791 321.408156,33.7659259 L321.408156,33.7659259 Z" id="路径"></path>
            <path d="M355.956969,33.7659259 C353.981008,33.7761927 352.02613,33.3592854 350.225969,32.5437037 C348.477059,31.769376 346.965469,30.5432383 345.846313,28.9911111 L348.662969,26.9051852 C349.412545,28.1201734 350.453497,29.128478 351.691281,29.8385185 C353.001785,30.5943192 354.493644,30.9774896 356.005813,30.9466667 C357.798665,30.9885805 359.551577,30.4133242 360.971594,29.317037 C362.373458,28.2228586 363.156723,26.5150993 363.071875,24.7377778 C363.130983,23.4752404 362.738442,22.2329711 361.96475,21.2340741 C361.22338,20.3604772 360.278337,19.6832234 359.213219,19.2622222 C358.138656,18.8222222 356.836156,18.3659259 355.322,17.877037 C353.884103,17.4367355 352.480193,16.8920817 351.121438,16.2474074 C349.815348,15.6357785 348.692521,14.6917328 347.865188,13.5096296 C346.946803,12.1403525 346.490371,10.5128108 346.562687,8.86518519 C346.516577,7.11323782 347.048759,5.39493562 348.076844,3.9762963 C349.09553,2.62444464 350.463439,1.57643574 352.033188,0.945185185 C353.584225,0.314566259 355.243459,-0.00651537734 356.917563,-1.32983902e-14 C358.788693,-0.0259029077 360.643431,0.352057389 362.3555,1.10814815 C363.774274,1.71971614 365.01704,2.67786606 365.969938,3.89481481 L363.3975,5.99703704 C362.701679,4.99525125 361.767132,4.18306825 360.678531,3.63407407 C359.462863,3.04016901 358.123523,2.74412466 356.771031,2.77037037 C354.981469,2.71425955 353.236821,3.33709236 351.886656,4.51407407 C350.644803,5.58823982 349.941443,7.15734847 349.965469,8.8 C349.895309,9.97047732 350.247785,11.127207 350.958625,12.0592593 C351.62132,12.8578696 352.471646,13.4794048 353.433375,13.8681481 C354.41025,14.2755556 355.777875,14.7807407 357.503688,15.3674074 C358.931143,15.8373898 360.333223,16.3813338 361.70425,16.997037 C362.785806,17.4912097 363.755304,18.200983 364.553469,19.082963 C365.350072,19.8639283 365.913813,20.8513861 366.181594,21.9348148 C366.376134,22.8016556 366.479809,23.6864429 366.490938,24.5748148 C366.626323,27.20173 365.486411,29.7324886 363.430063,31.3703704 C361.300868,33.0291316 358.65277,33.877999 355.956969,33.7659259 L355.956969,33.7659259 Z" id="路径"></path>
            <path d="M381.534813,33.4888889 C378.590817,33.5705729 375.746346,32.4187378 373.68725,30.3111111 C371.599116,28.1886118 370.469602,25.3033333 370.56125,22.3259259 C370.471754,19.3661171 371.574734,16.4945433 373.622125,14.357037 C375.582706,12.2248704 378.363546,11.0379152 381.258031,11.0977778 C384.055081,10.9416011 386.780129,12.0195259 388.714844,14.0474074 C390.559816,16.1290911 391.52835,18.8446599 391.417531,21.6251852 C391.417531,22.2281481 391.417531,22.717037 391.417531,23.0755556 L373.768656,23.0755556 C373.742161,25.2244172 374.644352,27.2799867 376.243406,28.7140741 C377.687159,30.0430487 379.573395,30.7866222 381.534813,30.8 C382.953414,30.8157543 384.349438,30.4438885 385.572563,29.7244444 C386.691968,29.0976818 387.637648,28.2015363 388.324094,27.117037 L390.636031,28.9259259 C389.540722,30.5090183 388.046602,31.7740093 386.305219,32.5925926 C384.79115,33.2082854 383.168886,33.5130873 381.534813,33.4888889 L381.534813,33.4888889 Z M373.8175,20.6962963 L388.291531,20.6962963 C388.276762,18.8340504 387.568486,17.0442913 386.305219,15.677037 C384.973086,14.3460234 383.137224,13.6465657 381.258031,13.7540741 C379.332136,13.7004172 377.467862,14.4362202 376.096875,15.7911111 C374.752283,17.0842703 373.939272,18.8338579 373.8175,20.6962963 Z" id="形状"></path>
            <path d="M396.904313,32.9511111 L396.904313,16.3777778 C396.904313,14.8133333 396.87175,13.6725926 396.806625,12.9555556 C396.806625,12.2385185 396.725219,11.8311111 396.725219,11.7007407 L399.672125,11.7007407 C399.786094,13.2162963 399.851219,14.4385185 399.851219,15.3348148 L399.851219,15.3348148 C400.463233,14.0883763 401.41775,13.0425252 402.60275,12.32 C403.815537,11.5537507 405.22263,11.1521606 406.656781,11.162963 C407.342193,11.1500824 408.026355,11.2267793 408.691938,11.3911111 L408.284906,14.2918519 C407.980954,14.2069112 407.670578,14.1469588 407.356875,14.1125926 C406.947383,14.0495644 406.5338,14.016883 406.1195,14.0148148 C404.409585,13.9845732 402.777004,14.726797 401.674719,16.0355556 C400.371071,17.7566929 399.740017,19.8949874 399.900063,22.0488889 L399.900063,32.9511111 L396.904313,32.9511111 Z" id="路径"></path>
            <path d="M413.674,5.72000163 C413.104403,5.72070753 412.558562,5.49159495 412.159844,5.08444444 C411.707887,4.66650935 411.463554,4.070025 411.492313,3.45481481 C411.487761,2.87255946 411.730402,2.31574848 412.159844,1.92296296 C412.558113,1.51482443 413.104011,1.28471877 413.674,1.28471877 C414.243989,1.28471877 414.789887,1.51482443 415.188156,1.92296296 C415.617598,2.31574848 415.860239,2.87255946 415.855687,3.45481481 C415.884446,4.070025 415.640113,4.66650935 415.188156,5.08444444 C414.789438,5.49159495 414.243597,5.72070753 413.674,5.72000163 L413.674,5.72000163 Z M412.045875,32.9511111 L412.045875,11.7659259 L415.171875,11.7659259 L415.171875,32.9511111 L412.045875,32.9511111 Z" id="形状"></path>
            <path d="M431.713625,33.4888889 C428.774515,33.5699874 425.935296,32.4178888 423.882344,30.3111111 C421.789881,28.1902707 420.654637,25.3053805 420.740062,22.3259259 C420.657892,19.3673682 421.759823,16.4985261 423.800937,14.357037 C425.77025,12.2275857 428.554636,11.0416457 431.453125,11.0977778 C434.249816,10.9438191 436.97397,12.0213902 438.909937,14.0474074 C440.743122,16.1350605 441.704856,18.847906 441.596344,21.6251852 C441.596344,22.2281481 441.596344,22.717037 441.596344,23.0755556 L423.96375,23.0755556 C423.930787,25.2257298 424.834105,27.2838667 426.4385,28.7140741 C427.875565,30.0433333 429.756928,30.7872744 431.713625,30.8 C434.457263,30.7986862 437.015674,29.4141522 438.519187,27.117037 L440.831125,28.9259259 C439.731821,30.5053827 438.238777,31.7694632 436.500313,32.5925926 C434.98093,33.2095783 433.353089,33.5143879 431.713625,33.4888889 L431.713625,33.4888889 Z M424.012594,20.6962963 L438.470344,20.6962963 C438.461583,18.8359309 437.759007,17.0459031 436.500313,15.677037 C435.165891,14.3495705 433.331672,13.6507386 431.453125,13.7540741 C429.545379,13.721183 427.70403,14.4548814 426.340813,15.7911111 C424.976901,17.0755428 424.145762,18.8266192 424.012594,20.6962963 L424.012594,20.6962963 Z" id="形状"></path>
            <path d="M453.123469,33.4888889 C451.475487,33.5020243 449.845478,33.1456523 448.353063,32.4459259 C446.889349,31.7544199 445.640254,30.678755 444.738625,29.3333333 L447.180813,27.5081481 C447.77985,28.5114405 448.633728,29.3379935 449.655563,29.9037037 C450.692112,30.5129437 451.872576,30.8336514 453.074625,30.8325926 C454.329967,30.8859319 455.573923,30.5746554 456.6565,29.9362963 C457.604005,29.3165943 458.140293,28.2305431 458.056688,27.1007407 C458.118552,25.9826465 457.464625,24.9484875 456.428563,24.5259259 C454.961115,23.8983468 453.441021,23.402087 451.886094,23.042963 C450.483299,22.7752382 449.142002,22.2503782 447.92975,21.4948148 C447.245382,21.0434686 446.685484,20.4270113 446.301625,19.7022222 C446.036342,19.195214 445.870542,18.6420369 445.813187,18.0725926 C445.813187,17.6488889 445.813187,17.3718519 445.813187,17.2577778 C445.753358,15.9165511 446.187919,14.600066 447.034281,13.5585185 C447.818444,12.6177245 448.868344,11.9360787 450.046312,11.602963 C451.129587,11.2762228 452.252742,11.100739 453.383969,11.0814815 C454.892768,11.0830933 456.380687,11.4344998 457.731063,12.1081481 C459.014792,12.724466 460.073695,13.727365 460.759375,14.9762963 L458.398594,16.7525926 C457.936739,15.8331729 457.211059,15.0727749 456.314594,14.5688889 C455.365505,14.0190351 454.285076,13.7374133 453.188594,13.7540741 C452.07221,13.717329 450.969212,14.006072 450.01375,14.5851852 C449.155245,15.1078883 448.649694,16.0574545 448.694969,17.0622222 C448.628302,18.0719092 449.173974,19.0228976 450.078875,19.4740741 C451.318984,20.0558382 452.625866,20.482746 453.970094,20.7451852 C455.413101,21.0223673 456.810456,21.4995526 458.121813,22.162963 C459.025333,22.5979042 459.795647,23.2676272 460.352344,24.1022222 C460.695447,24.6534694 460.922589,25.2689825 461.019875,25.9111111 C461.019875,26.4325926 461.117563,26.7585185 461.117563,26.9051852 C461.22793,28.8299144 460.342448,30.6763714 458.773063,31.7940741 C457.112578,32.9350091 455.137182,33.5276056 453.123469,33.4888889 L453.123469,33.4888889 Z" id="路径"></path>
            <polygon id="路径" points="18.4629375 0.798518519 24.1939375 0.798518519 24.1939375 32.9511111 18.4629375 32.9511111 18.4629375 19.5555556 5.731 19.5555556 5.731 32.9511111 0 32.9511111 0 0.798518519 5.731 0.798518519 5.731 13.8355556 18.4629375 13.8355556"></polygon>
            <polygon id="路径" points="91.0773125 20.8592593 77.173125 0.798518519 72.614375 0.798518519 72.614375 32.9511111 78.345375 32.9511111 78.345375 12.7925926 92.2984063 32.9511111 96.8083125 32.9511111 96.8083125 0.798518519 91.0773125 0.798518519"></polygon>
            <path d="M121.018531,0.358518519 C114.346292,0.358518519 108.331353,4.38236848 105.779521,10.5530416 C103.22769,16.7237147 104.641739,23.8254404 109.362054,28.5454532 C114.082369,33.265466 121.17893,34.6738078 127.341383,32.1135247 C133.503835,29.5532415 137.518024,23.5287721 137.511446,16.8503704 C137.502452,7.73953665 130.120957,0.358518519 121.018531,0.358518519 Z M121.018531,27.6222222 C115.074895,27.6222222 110.256625,22.7994999 110.256625,16.8503704 C110.256625,10.9012409 115.074895,6.07851852 121.018531,6.07851852 C126.962168,6.07851852 131.780438,10.9012409 131.780438,16.8503704 C131.802135,19.7213347 130.67788,22.4821766 128.657275,24.519948 C126.636669,26.5577193 123.886927,27.7037037 121.018531,27.7037037 L121.018531,27.6222222 Z" id="形状"></path>
            <path d="M160.549406,21.1851852 C165.384172,19.5727019 168.352477,14.705452 167.57546,9.66428037 C166.798443,4.62310876 162.502615,0.877580122 157.407125,0.798518519 L145.22875,0.798518519 L145.22875,32.9511111 L150.95975,32.9511111 L150.95975,18.642963 L162.8125,32.9511111 L170.253031,32.9511111 L160.549406,21.1851852 Z M150.95975,16.002963 L150.95975,6.51851852 L157.325719,6.51851852 C159.942358,6.51851852 162.063562,8.64168373 162.063562,11.2607407 C162.063562,13.8797978 159.942358,16.002963 157.325719,16.002963 L150.95975,16.002963 Z" id="形状"></path>
            <path d="M48.4041562,0.358510426 C41.7304397,0.351927607 35.7105036,4.37159113 33.1535401,10.5417404 C30.5965766,16.7118897 32.0066047,23.8162885 36.7256372,28.5396821 C41.4446697,33.2630757 48.5425091,34.6744068 54.7069615,32.1150803 C60.8714139,29.5557539 64.8873661,23.5302544 64.8807893,16.8503704 C64.8718063,7.74589566 57.5002248,0.367501727 48.4041562,0.358510426 L48.4041562,0.358510426 Z M48.4041562,27.6222222 C42.4605195,27.6222222 37.64225,22.7994999 37.64225,16.8503704 C37.64225,10.9012409 42.4605195,6.07851852 48.4041562,6.07851852 C54.347793,6.07851852 59.1660625,10.9012409 59.1660625,16.8503704 C59.1877599,19.7213347 58.0635052,22.4821766 56.0428998,24.519948 C54.0222944,26.5577193 51.2725519,27.7037037 48.4041562,27.7037037 L48.4041562,27.6222222 Z" id="形状"></path>
        </g>
    </g>
</svg>