<?xml version="1.0" encoding="UTF-8"?>
<svg width="450px" height="44px" viewBox="0 0 450 44" version="1.1" xmlns="http://www.w3.org/2000/svg" xmlns:xlink="http://www.w3.org/1999/xlink">
    <title>画板</title>
    <g id="画板" stroke="none" stroke-width="1" fill="none" fill-rule="evenodd">
        <rect id="矩形" fill="#FFFFFF" opacity="0" x="0" y="0" width="450" height="44"></rect>
        <g id="7资源-2" fill="#000000" fill-rule="nonzero">
            <g id="编组" transform="translate(182.769231, 0.000000)">
                <polygon id="路径" points="10.1630769 33.7984615 0.816923077 2.14615385 4.22307692 2.14615385 12.0461538 29.3815385 12.1292308 29.3815385 20.0492308 2.14615385 23.8984615 2.14615385 31.8461538 29.3815385 31.8461538 29.3815385 39.5723077 2.14615385 42.9784615 2.14615385 33.6323077 33.7984615 29.8661538 33.7984615 21.9738462 6.61846154 21.8769231 6.61846154 13.9153846 33.7984615"></polygon>
                <path d="M52.2415385,34.3384615 C50.3650227,34.4050211 48.5286818,33.7847022 47.0769231,32.5938462 C45.7400562,31.4431584 45.0008962,29.7456392 45.0692308,27.9830769 C44.9443801,26.1216473 45.7867268,24.3270826 47.2984615,23.2338462 C48.6530773,22.3209172 50.1958282,21.7246393 51.8123077,21.4892308 C53.5798157,21.2395437 55.3591657,21.0824062 57.1430769,21.0184615 L59.8153846,21.0184615 L59.8153846,20.34 C59.9378963,18.8581842 59.4359628,17.3925385 58.4307692,16.2969231 C57.2816444,15.3079185 55.7896256,14.8105789 54.2769231,14.9123077 C53.0941379,14.9082841 51.9222996,15.1388869 50.8292308,15.5907692 C49.7935166,15.9901144 48.850937,16.5980783 48.06,17.3769231 L46.3569231,15.3692308 C47.3555877,14.4091027 48.5441434,13.6686136 49.8461538,13.1953846 C51.3590728,12.6258613 52.9651042,12.3441014 54.5815385,12.3646154 C56.7088881,12.2796577 58.793288,12.9793853 60.4384615,14.3307692 C62.0128975,15.7671725 62.8527803,17.8388833 62.7230769,19.9661538 L62.7230769,29.0769231 C62.7001432,30.6492288 62.8206422,32.2203502 63.0830769,33.7707692 L60.3138462,33.7707692 C60.1831451,33.0469135 60.0907091,32.3166687 60.0369231,31.5830769 C60.0369231,30.9923077 60.0369231,30.5907692 60.0369231,30.3784615 L59.9538462,30.3784615 C59.1345827,31.6252651 58.0221027,32.6521698 56.7138462,33.3692308 C55.3252788,34.0546391 53.7892779,34.3875185 52.2415385,34.3384615 Z M53.0446154,31.8323077 C54.8947541,31.9196092 56.6888818,31.1847264 57.9461538,29.8246154 C59.1512431,28.4757772 59.7951837,26.7173239 59.7461538,24.9092308 L59.7461538,23.3446154 L58.86,23.3446154 C56.2494785,23.2754393 53.6426301,23.5832247 51.12,24.2584615 C49.3757194,24.5636586 48.1095165,26.0877917 48.1292308,27.8584615 C48.0302894,29.0376709 48.5555296,30.1826944 49.5138462,30.8769231 C50.5650122,31.5511062 51.7965682,31.8891804 53.0446154,31.8461538 L53.0446154,31.8323077 Z" id="形状"></path>
                <path d="M75.1707692,34.0753846 C73.8122071,34.1001181 72.4867663,33.6550439 71.4184615,32.8153846 C70.2323385,31.7030655 69.6375655,30.0982038 69.8123077,28.4815385 L69.8123077,15.4246154 L65.4784615,15.4246154 L65.4784615,12.8769231 L69.8123077,12.8769231 L69.8123077,6.92307692 L72.8446154,6.92307692 L72.8446154,12.8769231 L78.7569231,12.8769231 L78.7569231,15.4246154 L72.8446154,15.4246154 L72.8446154,27.6923077 C72.7317938,28.765065 73.0230793,29.8413402 73.6615385,30.7107692 C74.28735,31.2891752 75.1235791,31.5846094 75.9738462,31.5276923 C76.895062,31.5147377 77.8005698,31.2871755 78.6184615,30.8630769 L78.7569231,33.4938462 C77.9842688,33.8121548 77.1668053,34.008346 76.3338462,34.0753846 L75.1707692,34.0753846 Z" id="路径"></path>
                <path d="M92.0353846,34.3384615 C89.0328248,34.4572753 86.1136117,33.3356566 83.9630769,31.2369231 C81.8802418,29.1486272 80.7528339,26.2925271 80.8476923,23.3446154 C80.7478245,20.3958362 81.8759905,17.5378155 83.9630769,15.4523077 C87.3102737,12.3045292 92.2093266,11.4499166 96.4246154,13.2784615 C97.7792028,13.8605415 98.958154,14.7865194 99.8446154,15.9646154 L97.4630769,17.6676923 C96.9212569,16.8177214 96.1608678,16.1290671 95.2615385,15.6738462 C94.2930457,15.1476729 93.2067787,14.8761062 92.1046154,14.8846154 C89.9187913,14.8031573 87.8058594,15.6776483 86.3169231,17.28 C84.8135747,18.9339108 84.0182503,21.1111114 84.1015385,23.3446154 C84.0252967,25.5636962 84.8090576,27.7264796 86.2892308,29.3815385 C87.7778257,30.9730471 89.8856847,31.8374209 92.0630769,31.7492308 C93.3109999,31.8059413 94.5494932,31.5083189 95.6353846,30.8907692 C96.4299771,30.4143759 97.1332858,29.800153 97.7123077,29.0769231 L99.9969231,30.7661538 C98.9860257,32.1044195 97.611304,33.123444 96.0369231,33.7015385 C94.7439785,34.1192439 93.394121,34.3341001 92.0353846,34.3384615 L92.0353846,34.3384615 Z" id="路径"></path>
                <path d="M103.707692,33.7984615 L103.707692,0 L106.74,0 L106.74,16.3246154 L106.836923,16.3246154 C107.416347,15.0815098 108.38974,14.0643142 109.606154,13.4307692 C110.903487,12.714356 112.361078,12.3380497 113.843077,12.3369231 C116.062893,12.1868933 118.232919,13.0406741 119.755385,14.6630769 C121.211078,16.4356456 121.956217,18.6858692 121.846154,20.9769231 L121.846154,33.7984615 L118.813846,33.7984615 L118.813846,22.2230769 C118.929974,20.3281342 118.487031,18.4408105 117.54,16.7953846 C116.504181,15.4364558 114.836964,14.7129464 113.136923,14.8846154 C111.300711,14.8429224 109.563266,15.7142384 108.498462,17.2107692 C107.310349,18.9272358 106.708174,20.981431 106.781538,23.0676923 L106.781538,33.7984615 L103.707692,33.7984615 Z" id="路径"></path>
                <path d="M153.595385,34.6153846 C149.161881,34.7624984 144.867361,33.0567313 141.743077,29.9076923 C138.631521,26.7391838 136.946426,22.4389409 137.076923,18 C136.93907,13.5544556 138.63659,9.2480626 141.770769,6.09230769 C144.885584,2.94615217 149.17051,1.24020986 153.595385,1.38461538 C155.91077,1.32116835 158.214734,1.73107613 160.366154,2.58923077 C162.094099,3.27642974 163.680597,4.27620491 165.046154,5.53846154 L162.803077,7.76769231 C161.636308,6.46631143 160.159941,5.48047924 158.510769,4.90153846 C156.954913,4.39632303 155.328104,4.14388713 153.692308,4.15384615 C150.092559,4.03032972 146.620044,5.49324074 144.193846,8.15538462 C141.7365,10.8364009 140.41172,14.3641866 140.496923,18 C140.399499,21.611159 141.704648,25.1196777 144.138462,27.7892308 C146.584981,30.4510964 150.080062,31.8997819 153.692308,31.7492308 C155.329348,31.7580266 156.961366,31.567392 158.552308,31.1815385 C159.853806,30.8887696 161.098167,30.3835402 162.235385,29.6861538 L162.235385,20.0769231 L154.8,20.0769231 L154.8,17.3076923 L165.406154,17.3076923 L165.406154,31.5276923 C163.471312,32.7170273 161.344161,33.5603911 159.12,34.02 C157.301039,34.3901904 155.451453,34.5895193 153.595385,34.6153846 L153.595385,34.6153846 Z" id="路径"></path>
                <path d="M180.512308,34.6153846 C178.564465,34.6252486 176.637465,34.2143442 174.863077,33.4107692 C173.140834,32.648578 171.650543,31.4448815 170.543077,29.9215385 L173.312308,27.8723077 C174.062004,29.0645943 175.093968,30.0537576 176.316923,30.7523077 C177.60375,31.494775 179.068428,31.8729109 180.553846,31.8461538 C182.332715,31.8740881 184.065792,31.2817084 185.455385,30.1707692 C186.835177,29.1160928 187.623502,27.4621558 187.573846,25.7261538 C187.638003,24.4824786 187.24941,23.2576718 186.48,22.2784615 C185.750765,21.4226423 184.824059,20.7573146 183.78,20.34 C182.7,19.8969231 181.426154,19.4538462 179.930769,18.9553846 C178.508964,18.5105203 177.120806,17.9645113 175.776923,17.3215385 C174.506062,16.7150614 173.410212,15.795501 172.592308,14.6492308 C171.694531,13.2943153 171.248622,11.6900139 171.318462,10.0661538 C171.25658,8.31985524 171.783218,6.60340448 172.813846,5.19230769 C173.792538,3.89235855 175.109763,2.8864777 176.621538,2.28461538 C178.15595,1.66460335 179.799109,1.35857073 181.453846,1.38461538 C183.298667,1.35116336 185.128197,1.72463329 186.812308,2.47846154 C188.227145,3.07572998 189.462794,4.02989907 190.398462,5.24769231 L187.850769,7.29692308 C187.160742,6.31204194 186.237999,5.51296558 185.164615,4.97076923 C183.993475,4.37618127 182.698044,4.06774542 181.384615,4.07076923 C179.608731,3.9998047 177.873575,4.61454563 176.538462,5.78769231 C175.319924,6.85092967 174.626968,8.39364398 174.641538,10.0107692 C174.579269,11.1470152 174.928251,12.2676876 175.624615,13.1676923 C176.276093,13.9561006 177.113579,14.5699399 178.061538,14.9538462 C179.030769,15.3553846 180.373846,15.8538462 182.076923,16.4353846 C183.78,17.0169231 185.178462,17.5430769 186.230769,18.0138462 C187.276395,18.519588 188.216197,19.2197407 189,20.0769231 C189.756485,20.8459727 190.296253,21.8013146 190.564615,22.8461538 C190.755188,23.7010981 190.857264,24.5733859 190.869231,25.4492308 C190.990542,28.0368411 189.869012,30.5268426 187.850769,32.1507692 C185.769434,33.8076586 183.171829,34.6800619 180.512308,34.6153846 Z" id="路径"></path>
                <path d="M206.667692,33.7984615 L206.667692,2.14615385 L215.612308,2.14615385 C218.383765,1.99398815 221.129537,2.74725306 223.435385,4.29230769 C225.377332,5.78632614 226.451185,8.14672886 226.301538,10.5923077 C226.450938,13.0549718 225.359844,15.4294002 223.393846,16.92 C221.079404,18.4826335 218.317656,19.2460038 215.529231,19.0938462 L209.893846,19.0938462 L209.893846,33.7984615 L206.667692,33.7984615 Z M209.893846,16.3661538 L215.349231,16.3661538 C217.373409,16.4957161 219.386199,15.9767556 221.095385,14.8846154 C222.428985,13.8728401 223.171346,12.2635263 223.075385,10.5923077 C223.184767,8.92632797 222.43862,7.31924255 221.095385,6.32769231 C219.366694,5.2893201 217.361148,4.80605602 215.349231,4.94307692 L209.893846,4.94307692 L209.893846,16.3661538 Z" id="形状"></path>
                <path d="M231.3,33.7984615 L231.3,17.4876923 C231.3,15.9369231 231.3,14.8015385 231.216923,14.1092308 C231.133846,13.4169231 231.133846,13.0015385 231.133846,12.8769231 L234,12.8769231 C234.124615,14.3723077 234.18,15.5630769 234.18,16.4492308 L234.276923,16.4492308 C234.874419,15.2232357 235.811602,14.194738 236.976923,13.4861538 C238.172511,12.7262645 239.561857,12.3272481 240.978462,12.3369231 C241.654335,12.3262726 242.328863,12.4007033 242.986154,12.5584615 L242.584615,15.4246154 C242.285344,15.3401038 241.979735,15.279908 241.670769,15.2446154 C241.262184,15.1907522 240.850579,15.1630035 240.438462,15.1615385 C238.75482,15.1219903 237.144651,15.8506429 236.063077,17.1415385 C234.782725,18.8402955 234.16277,20.9461749 234.318462,23.0676923 L234.318462,33.7984615 L231.3,33.7984615 Z" id="路径"></path>
                <path d="M255.890769,34.3384615 C252.915438,34.4345666 250.031488,33.3030167 247.915385,31.2092308 C245.817381,29.1393114 244.673898,26.2906355 244.758462,23.3446154 C244.671703,20.3941311 245.815228,17.5403345 247.915385,15.4661538 C252.434753,11.2930204 259.40217,11.2930204 263.921538,15.4661538 C266.021695,17.5403345 267.16522,20.3941311 267.078462,23.3446154 C267.163025,26.2906355 266.019542,29.1393114 263.921538,31.2092308 C261.787497,33.3102202 258.883699,34.4417002 255.890769,34.3384615 L255.890769,34.3384615 Z M255.890769,31.7492308 C258.082359,31.8404152 260.203446,30.9646446 261.692308,29.3538462 C263.187167,27.7169287 263.982297,25.5601371 263.907692,23.3446154 C263.983678,21.1205745 263.188847,18.95466 261.692308,17.3076923 C260.187807,15.7579406 258.11992,14.8833925 255.96,14.8833925 C253.80008,14.8833925 251.732193,15.7579406 250.227692,17.3076923 C248.751261,18.9649851 247.968063,21.1262166 248.04,23.3446154 C247.965395,25.5601371 248.760526,27.7169287 250.255385,29.3538462 C251.700484,30.9276622 253.754758,31.8008548 255.890769,31.7492308 L255.890769,31.7492308 Z" id="形状"></path>
            </g>
            <g id="编组" transform="translate(0.000000, 1.384615)">
                <polygon id="路径" points="18.2076923 0.72 23.8569231 0.72 23.8569231 32.4138462 18.2076923 32.4138462 18.2076923 19.2184615 5.64923077 19.2184615 5.64923077 32.4138462 0 32.4138462 0 0.72 5.64923077 0.72 5.64923077 13.5692308 18.2076923 13.5692308"></polygon>
                <polygon id="路径" points="89.82 20.5061538 76.1123077 0.72 71.6123077 0.72 71.6123077 32.4138462 77.2615385 32.4138462 77.2615385 12.5446154 91.0246154 32.4138462 95.4553846 32.4138462 95.4553846 0.72 89.82 0.72"></polygon>
                <path d="M119.34,0.290763292 C110.360175,0.283178868 103.072292,7.55254751 103.057017,16.5323628 C103.04179,25.512178 110.304938,32.80626 119.284737,32.8292261 C128.264536,32.852084 135.564812,25.5951608 135.595532,16.6153846 C135.613797,12.2922059 133.909313,8.1397775 130.858839,5.07631181 C127.808365,2.01284612 123.663218,0.290763292 119.34,0.290763292 Z M119.34,27.1661538 C115.038331,27.1661538 111.161585,24.5710277 109.52195,20.5940997 C107.882315,16.6171717 108.803678,12.0439399 111.855348,9.0121633 C114.907019,5.98038671 119.486178,5.08895272 123.452298,6.75456249 C127.418417,8.42017226 129.988042,12.3138066 129.96,16.6153846 C129.92194,22.4535943 125.178334,27.1661538 119.34,27.1661538 Z" id="形状"></path>
                <path d="M158.330769,20.8661538 C163.176745,19.3259209 166.177479,14.4840863 165.400397,9.45895533 C164.623314,4.43382436 160.300242,0.72453712 155.215385,0.72 L143.224615,0.72 L143.224615,32.4138462 L148.86,32.4138462 L148.86,18.3184615 L160.615385,32.4138462 L167.94,32.4138462 L158.330769,20.8661538 Z M148.86,15.7015385 L148.86,6.36923077 L155.146154,6.36923077 C156.81321,6.36923077 158.353634,7.25859464 159.187162,8.70230767 C160.02069,10.1460207 160.02069,11.9247485 159.187162,13.3684616 C158.353634,14.8121746 156.81321,15.7015385 155.146154,15.7015385 L148.86,15.7015385 Z" id="形状"></path>
                <path d="M47.7276923,0.290763292 C38.7478673,0.283178868 31.4599843,7.55254751 31.4447092,16.5323628 C31.4294819,25.512178 38.6926305,32.80626 47.6724295,32.8292261 C56.6522285,32.852084 63.9525041,25.5951608 63.9832246,16.6153846 C64.0014893,12.2922059 62.2970051,8.1397775 59.2465312,5.07631181 C56.1960573,2.01284612 52.0509102,0.290763292 47.7276923,0.290763292 Z M47.7276923,27.1661633 C43.4260229,27.1661633 39.5492776,24.5710277 37.9096424,20.5940997 C36.2700073,16.6171717 37.1913706,12.0439399 40.2430408,9.0121633 C43.2947109,5.98038671 47.8738708,5.08895272 51.8399903,6.75456249 C55.8061098,8.42017226 58.3757345,12.3138066 58.3476923,16.6153846 C58.3171937,22.4567667 53.569149,27.1738594 47.7276923,27.1661633 L47.7276923,27.1661633 Z" id="形状"></path>
            </g>
        </g>
    </g>
</svg>