<?xml version="1.0" encoding="UTF-8"?>
<svg width="359px" height="44px" viewBox="0 0 359 44" version="1.1" xmlns="http://www.w3.org/2000/svg" xmlns:xlink="http://www.w3.org/1999/xlink">
    <title>画板</title>
    <g id="画板" stroke="none" stroke-width="1" fill="none" fill-rule="evenodd">
        <rect id="矩形" fill="#FFFFFF" opacity="0" x="0" y="0" width="359" height="44"></rect>
        <g id="8资源-3" fill="#000000" fill-rule="nonzero">
            <g id="编组" transform="translate(194.638554, 0.000000)">
                <path d="M0.259518072,33.7536 L0.259518072,0.8352 L9.9337751,0.8352 C12.835,0.679843835 15.7139366,1.41880362 18.1806827,2.952 C20.2718462,4.50558358 21.4156901,7.02439606 21.2083936,9.6192 C21.2721495,11.7840741 20.4188781,13.8754253 18.8583133,15.3792 C17.1811645,16.9128207 15.0404959,17.8450489 12.7740562,18.0288 L22.4194779,33.696 L18.3248594,33.696 L9.1984739,18.3168 L3.60441767,18.3168 L3.60441767,33.7536 L0.259518072,33.7536 Z M3.60441767,15.48 L9.37148594,15.48 C11.5446495,15.627288 13.7126041,15.1260617 15.5999197,14.04 C17.0378111,13.0829777 17.8692247,11.444041 17.7914056,9.72 C17.969629,7.86253498 17.0528209,6.07048995 15.4413253,5.1264 C13.6038838,4.19554615 11.5603019,3.74472569 9.50124498,3.816 L3.60441767,3.816 L3.60441767,15.48 Z" id="形状"></path>
                <path d="M36.8083133,34.3152 C33.705517,34.4174312 30.6971984,33.2405738 28.4893173,31.0608 C26.3047161,28.9080839 25.1140348,25.9454609 25.2020884,22.8816 C25.1152414,19.8137173 26.3054294,16.8471077 28.4893173,14.688 C33.195228,10.3479412 40.4502338,10.3479412 45.1561446,14.688 C47.3400324,16.8471077 48.5302205,19.8137173 48.4433735,22.8816 C48.531427,25.9454609 47.3407458,28.9080839 45.1561446,31.0608 C42.9384512,33.2435917 39.9201253,34.4202853 36.8083133,34.3152 L36.8083133,34.3152 Z M36.8083133,31.6224 C39.0701621,31.6982778 41.2534955,30.7892326 42.7916466,29.1312 C44.3389919,27.4241494 45.1610596,25.1830167 45.0840562,22.8816 C45.1610149,20.5715492 44.3394483,18.3214612 42.7916466,16.6032 C41.2225464,14.9906304 39.066931,14.0807831 36.8155221,14.0807831 C34.5641131,14.0807831 32.4084978,14.9906304 30.8393976,16.6032 C29.302025,18.3267845 28.486499,20.5744653 28.5614056,22.8816 C28.4837213,25.1857426 29.3116718,27.4288058 30.8682329,29.1312 C32.3802104,30.8069438 34.5505056,31.7381851 36.8083133,31.68 L36.8083133,31.6224 Z" id="形状"></path>
                <path d="M62.168996,34.3152 C59.857233,34.4733066 57.5967769,33.5850368 56.0126506,31.896 C54.5185113,30.0493213 53.7633337,27.7147315 53.893253,25.344 L53.893253,11.9952 L57.0507229,11.9952 L57.0507229,24.0336 C56.9328859,26.0086557 57.3938145,27.9752089 58.3771486,29.6928 C59.4592671,31.1015587 61.1926453,31.8528575 62.9619679,31.68 C64.8665132,31.7104746 66.6632805,30.7997193 67.7630522,29.2464 C69.0002054,27.4612747 69.6272364,25.3249118 69.5508434,23.1552 L69.5508434,11.9952 L72.7083133,11.9952 L72.7083133,28.9728 C72.7083133,30.5856 72.7083133,31.752 72.8092369,32.4864 C72.9101606,33.2208 72.895743,33.6384 72.895743,33.7536 L69.8680321,33.7536 C69.7526908,32.208 69.6950201,30.9696 69.6950201,30.0384 L69.5940964,30.0384 C68.9479532,31.3483351 67.9100414,32.4252326 66.6240562,33.12 C65.2708886,33.9046349 63.7336759,34.3170371 62.168996,34.3152 Z" id="路径"></path>
                <path d="M86.0590763,34.0416 C84.6440713,34.0697055 83.2631404,33.6065664 82.1518876,32.7312 C80.9076222,31.5797535 80.2820601,29.9082922 80.4650201,28.224 L80.4650201,14.6448 L75.9522892,14.6448 L75.9522892,11.9952 L80.4650201,11.9952 L80.4650201,5.8608 L83.62249,5.8608 L83.62249,11.9952 L89.7644177,11.9952 L89.7644177,14.6448 L83.62249,14.6448 L83.62249,27.36 C83.5008782,28.4738374 83.7989983,29.5929842 84.4587149,30.4992 C85.1138824,31.1045088 85.9906398,31.4120403 86.8808835,31.3488 C87.8401237,31.3353272 88.7830075,31.0986625 89.6346586,30.6576 L89.7644177,33.408 C88.959953,33.7236574 88.1157993,33.9271689 87.255743,34.0128 L86.0590763,34.0416 Z" id="路径"></path>
                <path d="M103.24494,34.3152 C100.211315,34.4105832 97.2768839,33.2298904 95.1566265,31.0608 C93.0101372,28.8882427 91.8482378,25.9324131 91.9414859,22.8816 C91.8770329,19.8401103 93.0349687,16.8995503 95.1566265,14.7168 C97.1837949,12.5570394 100.036664,11.3628172 102.999839,11.4336 C105.871455,11.2766665 108.668255,12.38139 110.655622,14.4576 C112.547073,16.596518 113.538745,19.3821765 113.423815,22.2336 C113.423815,22.8528 113.423815,23.3424 113.423815,23.6736 L95.2719679,23.6736 C95.2414315,25.8702873 96.1673185,27.9719968 97.8094779,29.4336 C99.2740061,30.838426 101.214752,31.6405091 103.24494,31.68 C104.698324,31.698733 106.129185,31.3202934 107.382811,30.5856 C108.54988,29.9432039 109.540304,29.0232381 110.266345,27.9072 L112.645261,29.7648 C111.469323,31.3153685 109.915851,32.5397685 108.13253,33.3216 C106.585319,33.9729027 104.923951,34.3106428 103.24494,34.3152 L103.24494,34.3152 Z M95.3152209,21.2112 L110.179839,21.2112 C110.159624,19.3032556 109.429918,17.47096 108.13253,16.0704 C106.7645,14.700283 104.876628,13.9774858 102.942169,14.0832 C100.984126,14.0448716 99.0947389,14.8038588 97.7085542,16.1856 C96.3082285,17.5019247 95.4540384,19.295581 95.3152209,21.2112 L95.3152209,21.2112 Z" id="形状"></path>
                <path d="M119.017871,33.7536 L119.017871,16.7904 C119.017871,15.1776 119.017871,14.0112 118.931365,13.2768 C118.844859,12.5424 118.830442,12.1248 118.830442,11.9952 L121.858153,11.9952 C121.987912,13.5504 122.045582,14.7888 122.045582,15.7104 L122.132088,15.7104 C123.459887,13.0677681 126.164311,11.3969793 129.124659,11.3904 C129.825379,11.3954028 130.522764,11.4873062 131.200803,11.664 L130.782691,14.6448 C130.469388,14.5640974 130.151667,14.5015927 129.831124,14.4576 C129.405674,14.4015822 128.97708,14.3727237 128.547952,14.3712 C126.792415,14.3336097 125.115366,15.0968981 123.991968,16.4448 C122.656153,18.2046676 122.010112,20.3913441 122.175341,22.5936 L122.175341,33.7536 L119.017871,33.7536 Z" id="路径"></path>
                <path d="M153.605863,34.56 C151.380444,34.6057556 149.190264,34.0000645 147.305341,32.8176 C145.45026,31.6138311 144.010709,29.8693834 143.181888,27.8208 L146.353775,26.6688 C146.86677,28.1571879 147.841503,29.4434684 149.136386,30.3408 C150.452867,31.235656 152.013597,31.7033013 153.605863,31.68 C155.509079,31.7233177 157.35467,31.0262604 158.752972,29.736 C160.172919,28.4168158 160.946752,26.5450687 160.872369,24.6096 C161.025522,22.5956886 160.084137,20.6547453 158.406948,19.5264 C156.575983,18.4040632 154.455413,17.8432765 152.308273,17.9136 L150.866506,17.9136 L150.866506,15.0336 L152.308273,15.0336 C154.26649,15.1270102 156.207011,14.6249009 157.873494,13.5936 C159.3402,12.5446613 160.158505,10.8119797 160.036145,9.0144 C160.078582,7.32677639 159.377632,5.70551181 158.118594,4.5792 C156.852223,3.4297141 155.186264,2.81995578 153.476104,2.88 C152.181483,2.85968202 150.907316,3.20403395 149.799598,3.8736 C148.681992,4.57669391 147.779273,5.57295068 147.19,6.7536 L144.306466,5.3136 C145.198822,3.6298102 146.554466,2.23585814 148.213655,1.296 C149.890391,0.408182533 151.766125,-0.0378733992 153.663534,1.85615412e-14 C156.178815,-0.0893530955 158.636758,0.76319597 160.555181,2.3904 C162.392767,4.02022674 163.398725,6.38926301 163.294538,8.8416 C163.342868,10.5871232 162.776526,12.2942605 161.694177,13.6656 C160.642263,14.9822928 159.198084,15.9304499 157.570723,16.3728 L157.570723,16.4592 C159.438737,16.8174881 161.127813,17.8032686 162.35739,19.2528 C163.626269,20.7554192 164.293863,22.6736814 164.231687,24.6384 C164.31802,28.3389229 162.248562,31.7538367 158.925984,33.3936 C157.268911,34.1942367 155.446335,34.593824 153.605863,34.56 L153.605863,34.56 Z" id="路径"></path>
            </g>
            <g id="编组">
                <polygon id="路径" points="18.9592369 0.8064 24.8416466 0.8064 24.8416466 33.7536 18.9592369 33.7536 18.9592369 20.0304 5.88240964 20.0304 5.88240964 33.7536 0 33.7536 0 0.8064 5.88240964 0.8064 5.88240964 14.1552 18.9592369 14.1552"></polygon>
                <polygon id="路径" points="93.5274297 21.3696 79.2539357 0.8064 74.5681928 0.8064 74.5681928 33.7536 80.4506024 33.7536 80.4506024 13.0896 94.7817671 33.7536 99.3954217 33.7536 99.3954217 0.8064 93.5274297 0.8064"></polygon>
                <path d="M124.265904,0.345593744 C114.909784,0.337650488 107.318697,7.90654294 107.310729,17.2511959 C107.302774,26.5958489 114.880952,34.1776337 124.237072,34.185594 C133.593192,34.1935418 141.184283,26.624653 141.192274,17.28 C141.199905,12.7913682 139.419979,8.48396024 136.244844,5.3073136 C133.069708,2.13066696 128.76005,0.345593744 124.265904,0.345593744 Z M124.265904,28.296 C119.790596,28.296 115.756507,25.6018789 114.046588,21.4711831 C112.336668,17.3404873 113.288071,12.5876708 116.456719,9.43115806 C119.625368,6.27464535 124.386485,5.33682121 128.517771,7.05542443 C132.649057,8.77402765 135.335927,12.810193 135.324295,17.28 C135.308361,23.3686245 130.36202,28.296 124.265904,28.296 Z" id="形状"></path>
                <path d="M164.866064,21.744 C169.888541,20.1255067 172.989773,15.1026393 172.182721,9.89368006 C171.375668,4.68472083 166.899447,0.8329934 161.622088,0.8064 L149.136386,0.8064 L149.136386,33.7536 L155.004378,33.7536 L155.004378,19.0944 L167.24498,33.7536 L174.871928,33.7536 L164.866064,21.744 Z M155.004378,16.3728 L155.004378,6.6672 L161.55,6.6672 C164.233416,6.6672 166.408755,8.83987257 166.408755,11.52 C166.408755,14.2001274 164.233416,16.3728 161.55,16.3728 L155.004378,16.3728 Z" id="形状"></path>
                <path d="M49.6977108,0.345593744 C40.3415907,0.337650488 32.7505039,7.90654294 32.7425361,17.2511959 C32.7345809,26.5958489 40.3127595,34.1776337 49.6688796,34.185594 C59.0249997,34.1935418 66.6160902,26.624653 66.6240808,17.28 C66.6317124,12.7913682 64.8517865,8.48396024 61.6766508,5.3073136 C58.5015151,2.13066696 54.1918573,0.345593744 49.6977108,0.345593744 Z M49.6977108,28.2960094 C45.2224036,28.2960094 41.1883144,25.6018789 39.4783947,21.4711831 C37.7684751,17.3404873 38.7198779,12.5876708 41.8885265,9.43115806 C45.0571752,6.27464535 49.8182919,5.33682121 53.949578,7.05542443 C58.080864,8.77402765 60.7677339,12.810193 60.7561021,17.28 C60.7522429,20.2054447 59.5850224,23.0095544 57.5111783,25.0754557 C55.4373342,27.141357 52.6267455,28.2998216 49.6977108,28.2960094 L49.6977108,28.2960094 Z" id="形状"></path>
            </g>
        </g>
    </g>
</svg>