<?xml version="1.0" encoding="UTF-8"?>
<svg width="469px" height="44px" viewBox="0 0 469 44" version="1.1" xmlns="http://www.w3.org/2000/svg" xmlns:xlink="http://www.w3.org/1999/xlink">
    <title>画板</title>
    <g id="画板" stroke="none" stroke-width="1" fill="none" fill-rule="evenodd">
        <rect id="矩形" fill="#FFFFFF" opacity="0" x="0" y="0" width="469" height="44"></rect>
        <g id="honor-earbuds-2-lite-logo" fill="#000000" fill-rule="nonzero">
            <g id="编组" transform="translate(191.740883, 0.000000)">
                <path d="M0.630134357,34.92 L0.630134357,2.43 L20.7044146,2.43 L20.7044146,5.4 L3.96084453,5.4 L3.96084453,16.65 L19.6241843,16.65 L19.6241843,19.53 L3.96084453,19.53 L3.96084453,31.95 L21.2445298,31.95 L21.2445298,34.92 C21.2445298,34.92 0.630134357,34.92 0.630134357,34.92 Z" id="路径"></path>
                <path d="M32.2268714,35.46 C30.0664107,35.46 28.2660269,34.92 26.8257198,33.66 C25.4754319,32.4 24.7552783,30.96 24.7552783,28.89 C24.7552783,26.55 25.5654511,24.93 27.0957774,24.03 C28.6261036,23.04 30.0664107,22.41 31.6867562,22.23 C33.3071017,21.96 35.1074856,21.78 37.0879079,21.69 C38.6182342,21.69 39.4284069,21.69 39.7884837,21.69 L39.7884837,20.97 C39.7884837,19.08 39.2483685,17.73 38.2581574,16.74 C37.2679463,15.75 35.8276392,15.39 33.9372361,15.39 C32.6769674,15.39 31.5067179,15.66 30.4264875,16.11 C29.3462572,16.56 28.3560461,17.19 27.5458733,18 L25.7454894,15.93 C26.7357006,14.94 27.9059501,14.31 29.256238,13.77 C30.7865643,13.23 32.4069098,12.96 34.1172745,12.96 C36.5477927,12.96 38.6182342,13.68 40.0585413,15.03 C41.6788868,16.38 42.3990403,18.27 42.3990403,20.88 L42.3990403,29.97 C42.3990403,31.86 42.5790787,33.48 42.8491363,34.83 L39.9685221,34.83 C39.7884837,33.84 39.6984645,33.21 39.6984645,32.49 C39.6984645,31.77 39.6984645,31.41 39.6984645,31.23 L39.5184261,31.23 C38.528215,32.58 37.4479846,33.66 36.0976967,34.38 C35.4675624,35.19 34.0272553,35.46 32.2268714,35.46 Z M33.0370441,32.85 C35.1975048,32.85 36.8178503,32.13 38.078119,30.78 C39.3383877,29.43 39.9685221,27.63 39.9685221,25.74 L39.9685221,24.12 L38.9783109,24.12 C35.73762,24.12 33.1270633,24.39 30.9666027,25.11 C28.8961612,25.83 27.8159309,27 27.8159309,28.8 C27.8159309,30.15 28.3560461,31.23 29.3462572,31.95 C30.5165067,32.58 31.596737,32.85 33.0370441,32.85 Z" id="形状"></path>
                <path d="M49.690595,34.92 L49.690595,18.18 C49.690595,16.56 49.690595,15.48 49.5105566,14.67 C49.5105566,13.95 49.3305182,13.59 49.3305182,13.41 L52.3011516,13.41 C52.48119,14.94 52.48119,16.11 52.48119,17.1 L52.6612284,17.1 C53.381382,15.84 54.1915547,14.76 55.3618042,13.95 C56.6220729,13.14 57.9723608,12.69 59.4126679,12.69 C60.2228407,12.69 60.9429942,12.87 61.4831094,12.96 L61.0330134,15.93 C60.852975,15.93 60.4928983,15.75 60.0428023,15.75 C59.5927063,15.75 59.2326296,15.57 58.7825336,15.57 C56.9821497,15.57 55.5418426,16.29 54.2815739,17.64 C53.0213052,18.99 52.48119,21.06 52.48119,23.76 L52.48119,34.74 L49.5105566,34.74 L49.5105566,34.92 L49.690595,34.92 Z" id="路径"></path>
                <path d="M76.4262956,35.46 C74.8059501,35.46 73.2756238,35.01 71.8353167,34.38 C70.3049904,33.66 69.1347409,32.58 68.3245681,31.23 L68.1445298,31.23 L68.1445298,34.92 L64.993858,34.92 L64.993858,0.27 L68.1445298,0.27 L68.1445298,17.19 L68.3245681,17.19 C69.3147793,15.84 70.3950096,14.76 71.8353167,14.04 C73.365643,13.23 74.8059501,12.96 76.4262956,12.96 C79.6669866,12.96 82.3675624,14.04 84.4380038,16.2 C86.5084453,18.36 87.5886756,21.06 87.5886756,24.3 C87.5886756,27.54 86.5084453,30.24 84.4380038,32.4 C82.4575816,34.38 79.6669866,35.46 76.4262956,35.46 Z M76.156238,32.76 C78.5867562,32.76 80.6571977,31.95 82.0975048,30.33 C83.6278311,28.71 84.2579655,26.64 84.2579655,24.12 C84.2579655,21.6 83.5378119,19.53 82.0975048,17.91 C80.5671785,16.29 78.6767754,15.48 76.156238,15.48 C73.7257198,15.48 71.8353167,16.29 70.2149712,17.91 C68.5946257,19.53 67.8744722,21.6 67.8744722,24.12 C67.8744722,26.55 68.6846449,28.62 70.2149712,30.33 C71.7452975,31.95 73.7257198,32.76 76.156238,32.76 Z" id="形状"></path>
                <path d="M101.091555,35.46 C98.3909789,35.46 96.3205374,34.65 94.9702495,33.03 C93.6199616,31.41 92.8998081,29.25 92.8998081,26.55 L92.8998081,13.41 L96.0504798,13.41 L96.0504798,25.29 C96.0504798,27.72 96.5005758,29.61 97.4007678,30.87 C98.2109405,32.22 99.831286,32.76 101.901727,32.76 C103.972169,32.76 105.412476,31.95 106.672745,30.33 C107.933013,28.71 108.473129,26.64 108.473129,24.39 L108.473129,13.41 L111.6238,13.41 L111.6238,30.15 C111.6238,31.77 111.6238,32.85 111.803839,33.66 C111.803839,34.38 111.983877,34.74 111.983877,34.92 L109.013244,34.92 C108.833205,33.39 108.833205,32.22 108.833205,31.23 L108.653167,31.23 C108.113052,32.49 107.032821,33.39 105.682534,34.2 C104.062188,35.01 102.531862,35.46 101.091555,35.46 Z" id="路径"></path>
                <path d="M128.097313,35.46 C124.856622,35.46 122.156046,34.38 120.085605,32.22 C118.015163,30.06 116.934933,27.36 116.934933,24.12 C116.934933,20.88 118.015163,18.18 120.085605,16.02 C122.156046,13.86 124.856622,12.78 128.097313,12.78 C129.717658,12.78 131.247985,13.23 132.688292,13.86 C134.218618,14.67 135.388868,15.66 136.19904,17.01 L136.379079,17.01 L136.379079,0.27 L139.52975,0.27 L139.52975,34.92 L136.28906,34.92 L136.28906,31.23 L136.28906,31.23 C135.298848,32.58 134.218618,33.57 132.778311,34.38 C131.247985,35.01 129.717658,35.46 128.097313,35.46 Z M128.36737,32.76 C130.797889,32.76 132.688292,31.95 134.308637,30.33 C135.838964,28.71 136.649136,26.64 136.649136,24.12 C136.649136,21.69 135.838964,19.53 134.308637,17.91 C132.688292,16.29 130.797889,15.48 128.36737,15.48 C125.936852,15.48 123.866411,16.29 122.426104,17.91 C120.895777,19.53 120.265643,21.6 120.265643,24.12 C120.265643,26.82 121.075816,28.98 122.606142,30.51 C124.226488,32.04 126.20691,32.76 128.36737,32.76 Z" id="形状"></path>
                <path d="M152.762572,35.46 C150.962188,35.46 149.341843,35.01 147.901536,34.38 C146.461228,33.75 145.20096,32.58 144.210749,31.23 L146.641267,29.34 C147.181382,30.33 147.991555,31.14 149.071785,31.77 C150.152015,32.4 151.412284,32.76 152.582534,32.76 C154.11286,32.76 155.283109,32.49 156.273321,31.77 C157.263532,31.23 157.803647,30.24 157.803647,28.89 C157.803647,27.63 157.263532,26.82 156.003263,26.28 C154.923033,25.74 153.302687,25.2 151.412284,24.75 C149.521881,24.3 148.171593,23.76 147.36142,23.13 C146.551248,22.59 146.011132,21.87 145.741075,21.33 C145.471017,20.61 145.20096,20.07 145.20096,19.71 C145.20096,19.35 145.20096,18.99 145.20096,18.9 C145.20096,17.37 145.651056,16.2 146.461228,15.12 C147.271401,14.13 148.351631,13.5 149.6119,13.05 C150.872169,12.6 151.952399,12.51 153.03263,12.51 C154.562956,12.51 156.003263,12.96 157.533589,13.59 C158.883877,14.31 159.964107,15.21 160.684261,16.47 L158.253743,18.27 C157.803647,17.28 156.993474,16.65 156.093282,16.11 C155.103071,15.57 154.022841,15.3 152.94261,15.3 C151.682342,15.3 150.602111,15.57 149.701919,16.11 C148.711708,16.65 148.351631,17.46 148.351631,18.54 C148.351631,19.62 148.801727,20.43 149.701919,20.97 C150.692131,21.51 152.042418,21.96 153.662764,22.23 C155.463148,22.68 156.813436,23.04 157.893666,23.76 C158.973896,24.3 159.784069,25.02 160.234165,25.65 C160.684261,26.37 160.954319,27 160.954319,27.54 C160.954319,28.08 161.134357,28.35 161.134357,28.53 C161.134357,30.87 160.324184,32.49 158.793858,33.57 C157.263532,34.65 154.923033,35.46 152.762572,35.46 Z" id="路径"></path>
                <path d="M174.367179,34.92 L174.367179,31.5 L187.6,18.09 C188.860269,16.83 189.760461,15.66 190.480614,14.4 C191.200768,13.14 191.560845,11.97 191.560845,10.62 C191.560845,8.73 190.840691,7.2 189.670441,6.12 C188.410173,5.04 186.969866,4.32 185.079463,4.32 C183.279079,4.32 181.928791,4.86 180.758541,5.94 C179.498273,7.02 178.6881,8.37 178.418042,10.17 L175.177351,9.45 C175.627447,7.11 176.797697,5.22 178.598081,3.78 C180.488484,2.25 182.648944,1.62 185.079463,1.62 C186.879846,1.62 188.500192,2.07 189.940499,2.7 C191.470825,3.42 192.641075,4.5 193.451248,5.85 C194.441459,7.2 194.801536,8.82 194.801536,10.71 C194.801536,12.6 194.35144,14.22 193.451248,15.75 C192.461036,17.28 191.290787,18.9 189.490403,20.52 L177.877927,32.13 L195.071593,32.13 L195.071593,35.1 L174.367179,35.1 L174.367179,34.92 L174.367179,34.92 Z" id="路径"></path>
                <polygon id="路径" points="212.085221 34.92 212.085221 2.43 215.325912 2.43 215.325912 31.86 230.449136 31.86 230.449136 34.83 212.085221 34.83"></polygon>
                <path d="M235.67025,7.47 C235.130134,7.47 234.590019,7.2 234.139923,6.75 C233.689827,6.3 233.41977,5.76 233.41977,5.13 C233.41977,4.41 233.689827,4.05 234.139923,3.51 C234.590019,3.06 235.130134,2.79 235.67025,2.79 C236.210365,2.79 236.75048,3.06 237.200576,3.51 C237.650672,3.96 237.920729,4.5 237.920729,5.13 C237.920729,5.85 237.650672,6.21 237.200576,6.75 C236.75048,7.2 236.300384,7.47 235.67025,7.47 Z M234.139923,34.92 L234.139923,13.41 L237.290595,13.41 L237.290595,34.92 C237.290595,34.92 234.139923,34.92 234.139923,34.92 Z" id="形状"></path>
                <path d="M250.343378,35.19 C248.813052,35.19 247.642802,34.74 246.562572,33.93 C245.482342,33.12 244.942226,31.59 244.942226,29.43 L244.942226,16.11 L240.441267,16.11 L240.441267,13.41 L244.942226,13.41 L244.942226,7.47 L248.092898,7.47 L248.092898,13.59 L254.214203,13.59 L254.214203,16.2 L248.092898,16.2 L248.092898,28.8 C248.092898,30.33 248.362956,31.41 248.903071,31.95 C249.443186,32.49 250.253359,32.76 251.333589,32.76 C252.3238,32.76 253.133973,32.49 254.034165,32.04 L254.214203,34.74 C253.223992,35.19 252.41382,35.28 251.783685,35.28 C250.883493,35.19 250.523417,35.19 250.343378,35.19 Z" id="路径"></path>
                <path d="M267.266987,35.46 C264.116315,35.46 261.415739,34.38 259.255278,32.22 C257.094818,30.06 256.104607,27.36 256.104607,24.12 C256.104607,20.88 257.184837,18.18 259.255278,16.11 C261.32572,13.95 263.846257,12.87 266.996929,12.87 C270.23762,12.87 272.668138,13.86 274.558541,15.84 C276.358925,17.91 277.259117,20.43 277.259117,23.58 C277.259117,24.3 277.259117,24.66 277.259117,25.11 L259.525336,25.11 C259.525336,27.54 260.515547,29.43 261.955854,30.78 C263.5762,32.13 265.376583,32.94 267.266987,32.94 C268.797313,32.94 270.147601,32.49 271.31785,31.86 C272.4881,31.23 273.478311,30.24 274.198464,29.25 L276.538964,31.14 C275.188676,32.94 273.658349,34.02 272.218042,34.65 C270.507678,35.19 268.887332,35.46 267.266987,35.46 Z M259.615355,22.59 L274.198464,22.59 C274.018426,20.52 273.388292,18.81 272.128023,17.55 C270.867754,16.29 269.15739,15.66 266.996929,15.66 C264.926488,15.66 263.216123,16.38 261.865835,17.73 C260.515547,19.08 259.705374,20.61 259.615355,22.59 Z" id="形状"></path>
            </g>
            <g id="编组" transform="translate(0.000000, 1.800000)">
                <polygon id="路径" points="19.3541267 0.63 25.2053743 0.63 25.2053743 33.12 19.3541267 33.12 19.3541267 19.62 6.48138196 19.62 6.48138196 33.12 0.720153551 33.12 0.720153551 0.63 6.48138196 0.63 6.48138196 13.77 19.3541267 13.77"></polygon>
                <polygon id="路径" points="92.8097889 20.97 78.7667946 0.63 74.1758157 0.63 74.1758157 33.12 79.847025 33.12 79.847025 12.69 93.9800384 33.12 98.4809981 33.12 98.4809981 0.63 92.8097889 0.63"></polygon>
                <path d="M122.966219,0.27 C113.784261,0.27 106.312668,7.74 106.312668,16.92 C106.312668,26.1 113.784261,33.57 122.966219,33.57 C132.148177,33.57 139.61977,26.1 139.61977,16.92 C139.709789,7.65 132.148177,0.27 122.966219,0.27 Z M122.966219,27.72 C117.024952,27.72 112.163916,22.86 112.163916,16.92 C112.163916,10.98 117.024952,6.12 122.966219,6.12 C128.907486,6.12 133.768522,10.98 133.768522,16.92 C133.94856,22.86 129.087524,27.72 122.966219,27.72 Z" id="形状"></path>
                <path d="M163.02476,21.24 C167.345681,19.89 170.316315,15.84 170.316315,11.25 C170.316315,5.4 165.545298,0.72 159.784069,0.72 L159.784069,0.72 L147.45144,0.72 L147.45144,33.21 L153.302687,33.21 L153.302687,18.63 L165.365259,33.12 L172.926871,33.12 L163.02476,21.24 Z M153.212668,15.93 L153.212668,6.48 L159.69405,6.48 C162.394626,6.48 164.465067,8.64 164.465067,11.25 C164.465067,13.95 162.304607,16.02 159.69405,16.02 L153.212668,16.02 L153.212668,15.93 Z" id="形状"></path>
                <path d="M49.690595,0.27 C40.5086372,0.27 33.0370441,7.74 33.0370441,16.92 C33.0370441,26.1 40.5086372,33.48 49.690595,33.48 C58.8725528,33.48 66.3441459,26.1 66.3441459,16.92 C66.3441459,7.74 58.8725528,0.27 49.690595,0.27 Z M49.690595,27.72 C43.7493282,27.72 38.8882917,22.86 38.8882917,16.92 C38.8882917,10.98 43.7493282,6.12 49.690595,6.12 C55.6318618,6.12 60.4928983,10.98 60.4928983,16.92 C60.4928983,22.86 55.6318618,27.72 49.690595,27.72 Z" id="形状"></path>
            </g>
        </g>
    </g>
</svg>